<svg width="210" height="30" viewBox="0 0 210 30" fill="none" xmlns="http://www.w3.org/2000/svg">
<g clip-path="url(#clip0_220_103)">
<path d="M125.873 28.853L125.865 25.2798L123.824 28.2377H123.309L121.269 25.3256V28.853H120.167V23.4608H121.117L123.584 27.034L126.005 23.4608H126.955L126.963 28.853H125.873Z" fill="#EFEFEF"/>
<path d="M136.401 28.0137V28.853H131.746V23.4608H136.277V24.3001H132.898V25.7008H135.896V26.5239H132.898V28.011H136.401V28.0137Z" fill="#EFEFEF"/>
<path d="M145.005 26.0975H146.095V28.2458C145.777 28.4671 145.404 28.6371 144.978 28.7531C144.551 28.8719 144.114 28.9313 143.666 28.9313C143.035 28.9313 142.462 28.8125 141.955 28.5723C141.448 28.3348 141.048 28.0029 140.757 27.5819C140.468 27.1608 140.322 26.6859 140.322 26.1569C140.322 25.6279 140.468 25.1529 140.757 24.7319C141.046 24.3109 141.448 23.9816 141.958 23.7414C142.468 23.504 143.045 23.3825 143.682 23.3825C144.203 23.3825 144.675 23.4581 145.102 23.6065C145.528 23.7549 145.885 23.9735 146.176 24.2623L145.447 24.8776C144.975 24.4674 144.403 24.2623 143.736 24.2623C143.299 24.2623 142.91 24.3406 142.57 24.4998C142.23 24.659 141.963 24.883 141.772 25.1691C141.58 25.4552 141.483 25.7845 141.483 26.1542C141.483 26.5239 141.58 26.837 141.772 27.1258C141.963 27.4145 142.23 27.6385 142.57 27.8032C142.91 27.9678 143.296 28.0488 143.728 28.0488C144.214 28.0488 144.638 27.957 145.005 27.7708V26.0921V26.0975Z" fill="#EFEFEF"/>
<path d="M154.745 27.6061H151.641L151.028 28.853H149.841L152.634 23.4608H153.77L156.572 28.853H155.365L154.745 27.6061ZM154.364 26.8208L153.193 24.4647L152.03 26.8208H154.361H154.364Z" fill="#EFEFEF"/>
<path d="M161.001 28.7531C160.555 28.6344 160.202 28.4779 159.94 28.2836L160.339 27.5063C160.593 27.6817 160.906 27.8221 161.276 27.9327C161.646 28.0434 162.015 28.0973 162.388 28.0973C162.849 28.0973 163.195 28.0326 163.421 27.9057C163.648 27.7789 163.761 27.6088 163.761 27.3983C163.761 27.2445 163.697 27.1177 163.57 27.0178C163.443 26.918 163.281 26.8397 163.087 26.783C162.892 26.7263 162.625 26.6616 162.288 26.5914C161.816 26.4942 161.432 26.3971 161.138 26.2999C160.847 26.2028 160.593 26.0489 160.385 25.8411C160.175 25.6333 160.069 25.3526 160.069 24.9964C160.069 24.6995 160.161 24.427 160.35 24.1841C160.536 23.9412 160.817 23.7468 161.192 23.6038C161.567 23.4608 162.026 23.3879 162.571 23.3879C162.949 23.3879 163.322 23.4284 163.689 23.5121C164.056 23.593 164.371 23.7118 164.639 23.8656L164.274 24.6429C164.002 24.5052 163.718 24.4 163.421 24.3271C163.125 24.2542 162.838 24.2191 162.56 24.2191C162.104 24.2191 161.767 24.2866 161.546 24.4189C161.324 24.5511 161.214 24.7292 161.214 24.9505C161.214 25.1044 161.279 25.2312 161.405 25.3284C161.532 25.4255 161.694 25.5038 161.888 25.5605C162.083 25.6171 162.35 25.6819 162.687 25.7521C163.149 25.8438 163.527 25.941 163.824 26.0408C164.118 26.1407 164.371 26.2945 164.582 26.4996C164.792 26.7047 164.898 26.9827 164.898 27.3309C164.898 27.6277 164.806 27.8976 164.617 28.1405C164.431 28.3807 164.147 28.575 163.77 28.7181C163.392 28.8611 162.93 28.934 162.385 28.934C161.907 28.934 161.443 28.8746 160.998 28.7558L161.001 28.7531Z" fill="#EFEFEF"/>
<path d="M170.32 24.3082H168.263V23.4608H173.531V24.3082H171.475V28.853H170.322V24.3082H170.32Z" fill="#EFEFEF"/>
<path d="M178.602 28.5723C178.095 28.3348 177.695 28.0029 177.404 27.5792C177.115 27.1554 176.969 26.6832 176.969 26.1569C176.969 25.6306 177.115 25.1583 177.404 24.7346C177.693 24.3109 178.092 23.9789 178.602 23.7414C179.109 23.504 179.682 23.3825 180.313 23.3825C180.945 23.3825 181.517 23.5013 182.024 23.7414C182.532 23.9789 182.931 24.3109 183.222 24.7319C183.514 25.1529 183.657 25.6279 183.657 26.1569C183.657 26.6859 183.511 27.1608 183.222 27.5819C182.934 28.0029 182.534 28.3321 182.024 28.5723C181.517 28.8098 180.945 28.9313 180.313 28.9313C179.682 28.9313 179.109 28.8125 178.602 28.5723ZM181.43 27.8086C181.762 27.6466 182.021 27.4199 182.21 27.1312C182.399 26.8424 182.494 26.5158 182.494 26.1569C182.494 25.7979 182.399 25.4714 182.21 25.1826C182.021 24.8938 181.76 24.6671 181.43 24.5052C181.098 24.3433 180.726 24.2623 180.313 24.2623C179.9 24.2623 179.528 24.3433 179.196 24.5052C178.864 24.6671 178.605 24.8938 178.416 25.1826C178.227 25.4741 178.132 25.7979 178.132 26.1569C178.132 26.5158 178.227 26.8424 178.416 27.1312C178.605 27.4226 178.867 27.6466 179.196 27.8086C179.528 27.9705 179.9 28.0515 180.313 28.0515C180.726 28.0515 181.098 27.9705 181.43 27.8086Z" fill="#EFEFEF"/>
<path d="M192.048 28.853L190.779 27.2742C190.725 27.2796 190.647 27.2823 190.539 27.2823H189.138V28.853H187.986V23.4608H190.539C191.076 23.4608 191.546 23.539 191.945 23.6929C192.344 23.8467 192.649 24.068 192.863 24.3568C193.076 24.6455 193.181 24.9856 193.181 25.3823C193.181 25.7791 193.068 26.138 192.838 26.4295C192.612 26.7209 192.285 26.9395 191.859 27.0853L193.286 28.8557H192.045L192.048 28.853ZM191.632 24.5862C191.373 24.4 190.99 24.3082 190.488 24.3082H189.138V26.4565H190.488C190.99 26.4565 191.37 26.362 191.632 26.1758C191.891 25.9896 192.023 25.7224 192.023 25.3796C192.023 25.0369 191.894 24.7724 191.632 24.5862Z" fill="#EFEFEF"/>
<path d="M202.23 28.0137V28.853H197.575V23.4608H202.106V24.3001H198.727V25.7008H201.725V26.5239H198.727V28.011H202.23V28.0137Z" fill="#EFEFEF"/>
<path d="M96.0048 0H79.6338C75.4776 0 72.1338 3.34383 72.1338 7.5V22.5C72.1338 26.6562 75.4776 30 79.6338 30H96.0048C100.118 30 103.505 26.6157 103.505 22.5V7.5C103.505 3.38701 100.12 0 96.0048 0ZM96.0048 19.4989C96.0048 21.5554 94.291 23.2287 92.2345 23.2287H83.3636C81.3071 23.2287 79.6338 21.5581 79.6338 19.4989V10.5011C79.6338 8.44458 81.3044 6.77132 83.3636 6.77132H92.2345C94.291 6.77132 96.0048 8.44188 96.0048 10.5011V19.5016V19.4989Z" fill="#E23155"/>
<path d="M202.467 0H110.767C109.952 0 109.267 0.685498 109.267 1.50054V28.4995C109.267 29.3145 109.952 30 110.767 30H116.767V20.2276H202.467C206.58 20.2276 209.967 16.8433 209.967 12.7276V7.5C209.967 3.38701 206.583 0 202.467 0ZM202.467 11.9989C202.467 12.814 201.782 13.4995 200.967 13.4995H118.267C117.452 13.4995 116.767 12.814 116.767 11.9989V8.26916C116.767 7.45412 117.452 6.76862 118.267 6.76862H200.97C201.785 6.76862 202.47 7.45412 202.47 8.26916V11.9989H202.467Z" fill="#E23155"/>
<path d="M27.0853 0H2.48561C1.67056 0 0.985067 0.685498 0.985067 1.50054V5.27078C0.985067 6.08582 1.67056 6.77132 2.48561 6.77132H16.6274C17.0565 6.77132 17.3992 7.07089 17.3992 7.5C17.3992 7.71321 17.2697 7.97229 17.0997 8.09914L1.11461 21.1722C0.38593 21.7713 0 22.5432 0 23.4878V28.5022C0 29.3172 0.685498 30.0027 1.50054 30.0027H27.0853C27.9003 30.0027 28.5426 29.3172 28.5426 28.5022V24.7724C28.5426 23.9142 27.9003 23.2287 27.0853 23.2287H11.9153C11.5293 23.2287 11.1866 22.8859 11.1866 22.5C11.1866 22.2436 11.2729 22.0277 11.443 21.9009L27.4712 8.83051C28.1567 8.27456 28.5426 7.41634 28.5426 6.51493V1.50054C28.5426 0.685498 27.9003 0 27.0853 0Z" fill="#E23155"/>
<path d="M58.1757 0H41.8047C37.6485 0 34.3047 3.34383 34.3047 7.5V22.5C34.3047 26.6562 37.6485 30 41.8047 30H58.1757C62.2887 30 65.6757 26.6157 65.6757 22.5V7.5C65.6757 3.38701 62.2914 0 58.1757 0ZM58.1757 19.4989C58.1757 21.5554 56.4619 23.2287 54.4054 23.2287H45.5344C43.478 23.2287 41.8047 21.5581 41.8047 19.4989V10.5011C41.8047 8.44458 43.4753 6.77132 45.5344 6.77132H54.4054C56.4619 6.77132 58.1757 8.44188 58.1757 10.5011V19.5016V19.4989Z" fill="#E23155"/>
</g>
<defs>
<clipPath id="clip0_220_103">
<rect width="209.968" height="30" fill="white"/>
</clipPath>
</defs>
</svg>
