<svg width="337" height="48" viewBox="0 0 337 48" fill="none" xmlns="http://www.w3.org/2000/svg">
<g clip-path="url(#clip0_112_466)">
<path d="M202.014 46.1647L202.001 40.4475L198.727 45.1801H197.9L194.625 40.5209V46.1647H192.858V37.5371H194.383L198.341 43.2543L202.227 37.5371H203.751L203.764 46.1647H202.014Z" fill="#E23155"/>
<path d="M218.911 44.8217V46.1647H211.439V37.5371H218.712V38.88H213.289V41.1211H218.101V42.4382H213.289V44.8174H218.911V44.8217Z" fill="#E23155"/>
<path d="M232.719 41.7561H234.469V45.1933C233.958 45.5474 233.361 45.8195 232.676 46.0051C231.992 46.1951 231.29 46.2901 230.571 46.2901C229.558 46.2901 228.639 46.1001 227.825 45.7158C227.011 45.3358 226.37 44.8047 225.902 44.1311C225.438 43.4574 225.205 42.6975 225.205 41.8511C225.205 41.0048 225.438 40.2448 225.902 39.5712C226.365 38.8975 227.011 38.3707 227.829 37.9864C228.648 37.6064 229.575 37.4121 230.597 37.4121C231.433 37.4121 232.191 37.533 232.875 37.7705C233.56 38.008 234.132 38.3578 234.599 38.8198L233.43 39.8043C232.672 39.148 231.754 38.8198 230.684 38.8198C229.982 38.8198 229.358 38.945 228.813 39.1998C228.267 39.4546 227.838 39.813 227.531 40.2707C227.223 40.7284 227.067 41.2552 227.067 41.8468C227.067 42.4384 227.223 42.9393 227.531 43.4013C227.838 43.8634 228.267 44.2218 228.813 44.4852C229.358 44.7486 229.978 44.8781 230.671 44.8781C231.45 44.8781 232.13 44.7313 232.719 44.4333V41.7475V41.7561Z" fill="#E23155"/>
<path d="M248.351 44.1697H243.37L242.387 46.1647H240.481L244.964 37.5371H246.787L251.283 46.1647H249.347L248.351 44.1697ZM247.74 42.9131L245.86 39.1434L243.994 42.9131H247.736H247.74Z" fill="#E23155"/>
<path d="M258.391 46.0053C257.677 45.8153 257.109 45.5648 256.689 45.2539L257.33 44.0103C257.737 44.291 258.24 44.5155 258.833 44.6926C259.426 44.8696 260.02 44.956 260.618 44.956C261.358 44.956 261.913 44.8523 262.276 44.6494C262.64 44.4464 262.822 44.1744 262.822 43.8376C262.822 43.5915 262.718 43.3885 262.515 43.2287C262.311 43.069 262.051 42.9437 261.739 42.8531C261.427 42.7624 260.999 42.6588 260.457 42.5465C259.699 42.391 259.084 42.2356 258.612 42.0801C258.144 41.9247 257.737 41.6785 257.404 41.346C257.066 41.0136 256.897 40.5645 256.897 39.9945C256.897 39.5195 257.044 39.0834 257.347 38.6947C257.646 38.3061 258.097 37.9952 258.699 37.7663C259.301 37.5375 260.037 37.4209 260.912 37.4209C261.518 37.4209 262.116 37.4857 262.705 37.6195C263.294 37.7491 263.801 37.9391 264.23 38.1852L263.645 39.4288C263.208 39.2086 262.753 39.0402 262.276 38.9236C261.8 38.807 261.341 38.7509 260.895 38.7509C260.163 38.7509 259.621 38.8588 259.266 39.0704C258.911 39.282 258.733 39.567 258.733 39.9211C258.733 40.1672 258.837 40.3702 259.041 40.5256C259.244 40.6811 259.504 40.8063 259.816 40.897C260.128 40.9876 260.557 41.0913 261.098 41.2036C261.839 41.3504 262.445 41.5058 262.922 41.6656C263.394 41.8254 263.801 42.0715 264.139 42.3997C264.477 42.7278 264.646 43.1726 264.646 43.7296C264.646 44.2046 264.498 44.6364 264.195 45.0251C263.896 45.4094 263.442 45.7203 262.835 45.9491C262.229 46.178 261.488 46.2946 260.613 46.2946C259.847 46.2946 259.102 46.1996 258.387 46.0096L258.391 46.0053Z" fill="#E23155"/>
<path d="M273.347 38.893H270.047V37.5371H278.502V38.893H275.201V46.1647H273.352V38.893H273.347Z" fill="#E23155"/>
<path d="M286.641 45.7158C285.826 45.3358 285.185 44.8047 284.717 44.1268C284.254 43.4488 284.02 42.6931 284.02 41.8511C284.02 41.0091 284.254 40.2534 284.717 39.5755C285.181 38.8975 285.822 38.3664 286.641 37.9864C287.455 37.6064 288.373 37.4121 289.387 37.4121C290.4 37.4121 291.318 37.6021 292.133 37.9864C292.947 38.3664 293.588 38.8975 294.056 39.5712C294.524 40.2448 294.753 41.0048 294.753 41.8511C294.753 42.6975 294.519 43.4574 294.056 44.1311C293.592 44.8047 292.951 45.3315 292.133 45.7158C291.318 46.0958 290.4 46.2901 289.387 46.2901C288.373 46.2901 287.455 46.1001 286.641 45.7158ZM291.18 44.4938C291.713 44.2347 292.128 43.872 292.432 43.4099C292.735 42.9479 292.886 42.4254 292.886 41.8511C292.886 41.2768 292.735 40.7543 292.432 40.2923C292.128 39.8302 291.708 39.4675 291.18 39.2084C290.647 38.9494 290.049 38.8198 289.387 38.8198C288.724 38.8198 288.126 38.9494 287.593 39.2084C287.061 39.4675 286.645 39.8302 286.342 40.2923C286.038 40.7586 285.887 41.2768 285.887 41.8511C285.887 42.4254 286.038 42.9479 286.342 43.4099C286.645 43.8763 287.065 44.2347 287.593 44.4938C288.126 44.7529 288.724 44.8824 289.387 44.8824C290.049 44.8824 290.647 44.7529 291.18 44.4938Z" fill="#E23155"/>
<path d="M308.219 46.1647L306.184 43.6386C306.097 43.6472 305.971 43.6515 305.798 43.6515H303.55V46.1647H301.701V37.5371H305.798C306.66 37.5371 307.414 37.6623 308.055 37.9085C308.696 38.1546 309.185 38.5087 309.527 38.9707C309.87 39.4328 310.039 39.9768 310.039 40.6116C310.039 41.2464 309.857 41.8207 309.488 42.287C309.125 42.7534 308.601 43.1031 307.916 43.3363L310.207 46.169H308.215L308.219 46.1647ZM307.552 39.3378C307.137 39.0398 306.521 38.893 305.716 38.893H303.55V42.3302H305.716C306.521 42.3302 307.132 42.1791 307.552 41.8811C307.968 41.5832 308.18 41.1557 308.18 40.6073C308.18 40.0589 307.972 39.6357 307.552 39.3378Z" fill="#E23155"/>
<path d="M324.561 44.8217V46.1647H317.09V37.5371H324.362V38.88H318.939V41.1211H323.751V42.4382H318.939V44.8174H324.561V44.8217Z" fill="#E23155"/>
<path d="M154.079 0H127.805C121.135 0 115.769 5.35013 115.769 12V36C115.769 42.6499 121.135 48 127.805 48H154.079C160.68 48 166.116 42.5851 166.116 36V12C166.116 5.41922 160.685 0 154.079 0ZM154.079 31.1983C154.079 34.4887 151.329 37.1659 148.029 37.1659H133.791C130.491 37.1659 127.805 34.493 127.805 31.1983V16.8017C127.805 13.5113 130.487 10.8341 133.791 10.8341H148.029C151.329 10.8341 154.079 13.507 154.079 16.8017V31.2026V31.1983Z" fill="#19325C"/>
<path d="M324.943 0H177.772C176.464 0 175.364 1.0968 175.364 2.40086V45.5991C175.364 46.9032 176.464 48 177.772 48H187.401V32.3642H324.943C331.544 32.3642 336.98 26.9493 336.98 20.3642V12C336.98 5.41922 331.548 0 324.943 0ZM324.943 19.1983C324.943 20.5023 323.843 21.5991 322.535 21.5991H189.809C188.501 21.5991 187.401 20.5023 187.401 19.1983V13.2307C187.401 11.9266 188.501 10.8298 189.809 10.8298H322.539C323.847 10.8298 324.947 11.9266 324.947 13.2307V19.1983H324.943Z" fill="#19325C"/>
<path d="M43.4695 0H3.98918C2.68111 0 1.58095 1.0968 1.58095 2.40086V8.43325C1.58095 9.73732 2.68111 10.8341 3.98918 10.8341H26.6855C27.3742 10.8341 27.9243 11.3134 27.9243 12C27.9243 12.3411 27.7164 12.7557 27.4435 12.9586L1.78885 33.8755C0.619384 34.8341 0 36.0691 0 37.5804V45.6035C0 46.9075 1.10016 48.0043 2.40823 48.0043H43.4695C44.7776 48.0043 45.8084 46.9075 45.8084 45.6035V39.6358C45.8084 38.2627 44.7776 37.1659 43.4695 37.1659H19.1229C18.5036 37.1659 17.9535 36.6175 17.9535 36C17.9535 35.5898 18.0921 35.2443 18.365 35.0414L44.0889 14.1288C45.189 13.2393 45.8084 11.8661 45.8084 10.4239V2.40086C45.8084 1.0968 44.7776 0 43.4695 0Z" fill="#19325C"/>
<path d="M93.3665 0H67.0925C60.4222 0 55.0557 5.35013 55.0557 12V36C55.0557 42.6499 60.4222 48 67.0925 48H93.3665C99.9675 48 105.403 42.5851 105.403 36V12C105.403 5.41922 99.9718 0 93.3665 0ZM93.3665 31.1983C93.3665 34.4887 90.6161 37.1659 87.3156 37.1659H73.0784C69.7779 37.1659 67.0925 34.493 67.0925 31.1983V16.8017C67.0925 13.5113 69.7736 10.8341 73.0784 10.8341H87.3156C90.6161 10.8341 93.3665 13.507 93.3665 16.8017V31.2026V31.1983Z" fill="#19325C"/>
</g>
<defs>
<clipPath id="clip0_112_466">
<rect width="336.98" height="48" fill="white"/>
</clipPath>
</defs>
</svg>
