<svg width="48" height="48" viewBox="0 0 48 48" fill="none" xmlns="http://www.w3.org/2000/svg">
<g clip-path="url(#clip0_112_445)">
<path d="M43.34 0H4.66C2.08635 0 0 2.16483 0 4.83528V43.1647C0 45.8352 2.08635 48 4.66 48H43.34C45.9136 48 48 45.8352 48 43.1647V4.83528C48 2.16483 45.9136 0 43.34 0Z" fill="#19325C"/>
<path d="M7.07982 34.4386C7.07982 33.2764 7.53982 32.3322 8.39982 31.5955L27.3498 15.5125C27.5498 15.3568 27.7098 15.0352 27.7098 14.7758C27.7098 14.2466 27.2998 13.8834 26.7998 13.8834H10.0198C9.04982 13.8834 8.23982 13.043 8.23982 12.0365V7.38797C8.23982 6.38148 9.04982 5.54102 10.0198 5.54102H39.1898C40.1598 5.54102 40.9198 6.38148 40.9198 7.38797V13.5618C40.9198 14.672 40.4598 15.72 39.6498 16.4048L20.6398 32.4878C20.4398 32.6435 20.3298 32.9133 20.3298 33.2245C20.3298 33.7018 20.7398 34.1169 21.1898 34.1169H39.1798C40.1498 34.1169 40.9098 34.9574 40.9098 36.0157V40.602C40.9098 41.6085 40.1498 42.4489 39.1798 42.4489H8.84982C7.87982 42.4489 7.06982 41.6085 7.06982 40.602V34.4282L7.07982 34.4386Z" fill="#E23155"/>
</g>
<defs>
<clipPath id="clip0_112_445">
<rect width="48" height="48" fill="white"/>
</clipPath>
</defs>
</svg>
